<svg width="33" height="33" viewBox="0 0 33 33" fill="none" xmlns="http://www.w3.org/2000/svg">
<path fill-rule="evenodd" clip-rule="evenodd" d="M32.4525 16.516C32.4525 25.3525 25.2889 32.516 16.4525 32.516C7.61589 32.516 0.452454 25.3525 0.452454 16.516C0.452454 7.67943 7.61589 0.515991 16.4525 0.515991C25.2889 0.515991 32.4525 7.67943 32.4525 16.516ZM8.46045 11.716C8.46045 10.836 9.17245 10.116 10.0525 10.116H22.8525C23.7325 10.116 24.4525 10.836 24.4525 11.716V21.316C24.4525 22.196 23.7325 22.916 22.8525 22.916H10.0525C9.17245 22.916 8.45245 22.196 8.45245 21.316L8.46045 11.716ZM16.4525 17.316L10.0525 13.3159V21.316H22.8525V13.3159L16.4525 17.316ZM16.4525 15.716L10.0525 11.716H22.8525L16.4525 15.716Z" fill="#B0A084"/>
</svg>
