<svg width="34" height="33" viewBox="0 0 34 33" fill="none" xmlns="http://www.w3.org/2000/svg">
<path d="M16.9335 0.0168457C8.02792 0.0168457 0.807495 7.34325 0.807495 16.3796C0.807495 24.0469 6.01083 30.4624 13.0256 32.2378C12.9504 32.0169 12.902 31.7605 12.902 31.4428V28.6461C12.2476 28.6461 11.151 28.6461 10.8755 28.6461C9.77222 28.6461 8.79122 28.1648 8.3155 27.2703C7.78738 26.2763 7.696 24.7559 6.3871 23.826C5.99873 23.5164 6.29438 23.1633 6.74187 23.211C7.56833 23.4483 8.25369 24.0237 8.89873 24.8773C9.54108 25.7322 9.84344 25.9258 11.0435 25.9258C11.6254 25.9258 12.4962 25.8918 13.3159 25.7609C13.7567 24.625 14.5186 23.5792 15.4499 23.0856C10.08 22.5251 7.51727 19.8144 7.51727 16.1341C7.51727 14.5497 8.18246 13.017 9.31263 11.7257C8.94173 10.444 8.47542 7.83004 9.45508 6.83464C11.8713 6.83464 13.332 8.42456 13.6828 8.85408C14.8869 8.43546 16.2092 8.1982 17.5987 8.1982C18.9909 8.1982 20.3186 8.43546 21.5254 8.8568C21.8721 8.43001 23.3342 6.83464 25.7558 6.83464C26.7395 7.83141 26.2678 10.4563 25.8929 11.7353C27.0163 13.0238 27.6775 14.5524 27.6775 16.1341C27.6775 19.8116 25.1188 22.521 19.7569 23.0842C21.2325 23.8655 22.3089 26.0608 22.3089 27.7148V31.4428C22.3089 31.5846 22.278 31.6869 22.2618 31.8082C28.5456 29.5734 33.0595 23.5192 33.0595 16.3796C33.0595 7.34325 25.8391 0.0168457 16.9335 0.0168457Z" fill="#B0A084"/>
</svg>
