<svg width="33" height="33" viewBox="0 0 33 33" fill="none" xmlns="http://www.w3.org/2000/svg">
<path d="M16.6185 0.0168457C7.71286 0.0168457 0.492432 7.34325 0.492432 16.3796C0.492432 25.4159 7.71286 32.7423 16.6185 32.7423C25.5241 32.7423 32.7445 25.4159 32.7445 16.3796C32.7445 7.34325 25.5241 0.0168457 16.6185 0.0168457ZM10.5658 7.38416C11.6973 7.38416 12.4512 8.14912 12.4512 9.16906C12.4512 10.189 11.6973 10.954 10.4408 10.954C9.30934 10.9553 8.55544 10.189 8.55544 9.16906C8.55544 8.14912 9.30934 7.38416 10.5658 7.38416ZM12.587 23.1974H8.55544V12.2889H12.587V23.1974ZM26.0253 23.1974H22.2303V17.2359C22.2303 15.5873 21.2184 15.2069 20.8394 15.2069C20.4605 15.2069 19.1946 15.4605 19.1946 17.2359C19.1946 17.4895 19.1946 23.1974 19.1946 23.1974H15.2746V12.2889H19.1959V13.8106C19.7012 12.9229 20.7131 12.2889 22.6106 12.2889C24.5081 12.2889 26.0253 13.8106 26.0253 17.2359V23.1974Z" fill="#B0A084"/>
</svg>
