<svg width="64" height="74" viewBox="0 0 64 74" fill="none" xmlns="http://www.w3.org/2000/svg">
<g filter="url(#filter0_d_32_47)">
<path d="M21.4842 6.08756H28.0935V31.0957H21.4842V15.3763L16.4825 31.0957H11.2666L6.26495 15.3763V31.0957H2.76381V6.08756H9.62318L15.5537 22.8073L21.4842 6.08756Z" fill="#7F0909"/>
<path d="M55.2054 45.9276H61.8147V70.9357H55.2054V55.2163L50.2038 70.9357H44.9878L39.9862 55.2163V70.9357H36.485V45.9276H43.3444L49.2749 62.6473L55.2054 45.9276Z" fill="#B0A084"/>
<path d="M27.7629 41.5883C28.4298 41.5883 29.0133 41.2549 29.5135 40.588C30.0137 39.9211 30.5019 39.0756 30.9783 38.0514C31.4308 37.0273 31.9191 35.9317 32.443 34.7647C32.967 33.5738 33.5863 32.4663 34.3008 31.4422C34.9915 30.418 35.8132 29.5725 36.7659 28.9056C37.7186 28.2149 38.8737 27.8696 40.2313 27.8696C41.3745 27.8696 42.4463 28.1316 43.4466 28.6555C44.4469 29.1795 45.3163 29.9059 46.0546 30.8348C46.7929 31.7637 47.3764 32.8712 47.8052 34.1573C48.2339 35.4196 48.4482 36.8129 48.4482 38.3373C48.4482 40.457 48.0195 42.3981 47.1621 44.1606C46.2809 45.8992 45.0185 47.3283 43.3751 48.4477L41.5531 45.7682C43.8396 44.1248 44.9828 41.6478 44.9828 38.3373C44.9828 36.9797 44.8042 35.9913 44.4469 35.372C44.0897 34.7528 43.5776 34.4431 42.9107 34.4431C42.3391 34.4431 41.8389 34.6456 41.4102 35.0505C40.9577 35.4315 40.5409 35.9436 40.1598 36.5867C39.7549 37.2297 39.3738 37.9681 39.0166 38.8017C38.6593 39.6353 38.2783 40.4808 37.8734 41.3382C37.4685 42.1956 37.0398 43.0412 36.5872 43.8748C36.1109 44.6845 35.575 45.411 34.9796 46.054C34.3603 46.6971 33.6696 47.2211 32.9075 47.626C32.1453 48.0071 31.2641 48.1976 30.2638 48.1976C29.1205 48.1976 28.0607 47.9237 27.0841 47.3759C26.1076 46.8281 25.2621 46.0779 24.5476 45.1252C23.8093 44.1725 23.2377 43.0531 22.8328 41.7669C22.4279 40.457 22.2254 39.0399 22.2254 37.5156C22.2254 35.6578 22.5231 33.943 23.1186 32.371C23.714 30.7753 24.5357 29.5011 25.5837 28.5484L28.2631 31.0134C27.2866 31.99 26.6078 32.9426 26.2267 33.8715C25.8457 34.7766 25.6551 35.896 25.6551 37.2297C25.6551 38.6588 25.8337 39.7425 26.191 40.4808C26.5483 41.2191 27.0722 41.5883 27.7629 41.5883Z" fill="#B0A084"/>
<path d="M28.0984 30.5524C28.0992 30.8446 27.9769 31.1415 27.7295 31.297C26.7728 31.8983 25.6312 31.8655 25.029 31.1653C23.3564 29.6495 26.1599 27.6979 27.5254 27.1205C27.5704 27.1015 27.6159 27.0869 27.6636 27.0764C28.3296 26.9293 27.9932 27.2446 28.0788 28.6454C28.0788 30.9021 28.0788 23.1831 28.0984 30.5524Z" fill="#B0A084"/>
</g>
<defs>
<filter id="filter0_d_32_47" x="1.27525" y="6.08755" width="62.028" height="67.8253" filterUnits="userSpaceOnUse" color-interpolation-filters="sRGB">
<feFlood flood-opacity="0" result="BackgroundImageFix"/>
<feColorMatrix in="SourceAlpha" type="matrix" values="0 0 0 0 0 0 0 0 0 0 0 0 0 0 0 0 0 0 127 0" result="hardAlpha"/>
<feOffset dy="1.48858"/>
<feGaussianBlur stdDeviation="0.744289"/>
<feComposite in2="hardAlpha" operator="out"/>
<feColorMatrix type="matrix" values="0 0 0 0 0 0 0 0 0 0 0 0 0 0 0 0 0 0 0.25 0"/>
<feBlend mode="normal" in2="BackgroundImageFix" result="effect1_dropShadow_32_47"/>
<feBlend mode="normal" in="SourceGraphic" in2="effect1_dropShadow_32_47" result="shape"/>
</filter>
</defs>
</svg>
